# xmcd
#
# Track frame offsets: 
#        182
#        17780
#        33775
#        55490
#        67650
#        91265
#        107597
#        126265
#        138265
#        155042
#
# Disc length: 2265 seconds
#
# Revision: 0
# Processed by: cddbd v1.5.2PL0 Copyright (c) Steve Scherf et al.
# Submitted via: ExactAudioCopy v0.99pb5
#
DISCID=7c08d70a
DTITLE=Clifford Curry - The Provider
DYEAR=1993
DGENRE=Blues
TTITLE0=The provider
TTITLE1=Bit by a rattlesnake
TTITLE2=Helpless and homeless
TTITLE3=Galopping dominoes
TTITLE4=Tall oak tree
TTITLE5=Soldier in the army of love
TTITLE6=Commit a crime
TTITLE7=Pure grain alcohol
TTITLE8=The divorce
TTITLE9=She shops till she drops
EXTD=
EXTT0=
EXTT1=
EXTT2=
EXTT3=
EXTT4=
EXTT5=
EXTT6=
EXTT7=
EXTT8=
EXTT9=
PLAYORDER=
